<svg xmlns="http://www.w3.org/2000/svg" version="1.1" xmlns:xlink="http://www.w3.org/1999/xlink" xmlns:svgjs="http://svgjs.dev/svgjs" width="100%" height="100%" viewBox="0 0 1000 600"><rect width="1000" height="600" x="0" y="0" fill="#191919"/><g><circle r="166.66666666666666" cx="488.1515909830729" cy="510.3737868425028" fill="#c1222a" transform="matrix(0.38882074628400703,0,0,0.38882074628400715,0,101.5560851531568)"/><path d="M398.98552680191494 584.7841155634668L398.98552680191494 584.7841155634668Q391.7129694579155 584.7841155634668 385.8443807131438 578.7189712148032Q380.00387134035657 572.6538268661396 380.00387134035657 558.6983789898163L380.00387134035657 558.6983789898163Q380.00387134035657 547.3823920800411 382.6152529349201 536.4595163780496Q385.25471390146816 525.5366406760581 388.59615916763005 514.3329712542212Q391.9095250618074 503.1012224603997 394.24011293652535 491.08325125101067Q396.57070081124334 479.03720066963706 395.7563990236913 465.699498976974L395.7563990236913 465.699498976974Q390.3090008586878 466.513800764526 385.05815829757626 468.5355155474139Q379.77923636448014 470.5572303303018 374.72494940726045 474.40410429218565L374.72494940726045 474.40410429218565Q374.72494940726045 461.6560694111982 376.9712991660248 453.68152776758495Q379.1895695528045 445.6789067519871 385.6478251092519 442.0566677659796Q392.13416003768384 438.40634940798765 404.8541155466867 438.40634940798765L404.8541155466867 438.40634940798765Q411.7335616829024 438.40634940798765 420.2135320222377 439.4172067994316Q428.72158173355746 440.42806419087555 437.7069807686147 441.43892158231944Q446.72045917565646 442.44977897376344 454.807318307208 442.44977897376344L454.807318307208 442.44977897376344Q462.66954246288304 442.44977897376344 468.9593217874231 440.9334928865975Q475.2210217399786 439.4172067994316 478.6467051220942 435.37377723365586L478.6467051220942 435.37377723365586Q482.69013468786994 438.01323820020394 484.824166958696 442.5620964617016Q486.93011985753753 447.1109547231993 486.93011985753753 452.3617972843109L486.93011985753753 452.3617972843109Q486.93011985753753 457.80919544931436 484.40297637892775 462.97579989447223Q481.87583290031785 468.1143249676456 476.6249903392063 471.4557702338075Q471.37414777809477 474.7972154999694 462.89417743875947 474.7972154999694L462.89417743875947 474.7972154999694Q453.99301651965595 474.7972154999694 443.46325202544824 471.9611989295295Q432.9615669032251 469.12518235908954 421.8421355973418 467.1034675762017L421.8421355973418 467.1034675762017Q422.85299298878573 471.5680877217457 423.3584216845077 476.0046284953052Q423.8638503802297 480.4692486408493 423.8638503802297 485.1023450183007L423.8638503802297 485.1023450183007Q423.8638503802297 490.1566319755204 423.4707391724459 495.1266808167864Q423.04954859267764 500.06865028606785 422.23524680512554 505.31949284717945L422.23524680512554 505.31949284717945Q426.50331134677776 503.1012224603997 432.56845569544134 501.27606328140365Q438.633600044105 499.4509041024077 444.97953811261414 498.24349110707186Q451.35355555310787 497.03607811173606 456.40784251032755 497.03607811173606L456.40784251032755 497.03607811173606Q459.63697028855125 497.03607811173606 462.07987565120743 497.65382429539625L462.07987565120743 497.65382429539625Q464.1015904340953 501.89380946506384 464.1015904340953 507.95895381372753L464.1015904340953 507.95895381372753Q464.1015904340953 517.6463371483985 459.2438590807675 527.7549110628379L459.2438590807675 527.7549110628379L457.8398904815398 528.3726572464982Q450.3426981616639 524.3292276807224 440.54299733905464 522.1109572939426Q430.74329651644535 519.8926869071629 420.0169764183458 519.0783851196109L420.0169764183458 519.0783851196109Q417.9952616354579 530.5909276332779 416.1701024564619 542.5246607267133Q414.3730226494505 554.4583938201486 414.3730226494505 566.9817937252596L414.3730226494505 566.9817937252596Q414.3730226494505 569.6212546918076 414.45726076540416 572.4572712622477Q414.56957825334234 575.2652084607031 414.7661338572342 578.1012250311429L414.7661338572342 578.1012250311429Q408.0832433249104 584.7841155634668 398.98552680191494 584.7841155634668ZM577.7107294836001 585.3737823751425L577.7107294836001 585.3737823751425Q570.4381721396007 585.3737823751425 561.2281381286671 582.762400780579Q552.0461834897179 580.1229398140309 542.0218476912322 577.0061295237455Q532.025591264731 573.8612398614754 522.1135729541835 572.4572712622477L522.1135729541835 572.4572712622477Q515.2341268179679 578.915526818695 509.2812999572424 581.6392259011967Q503.328473096517 584.3629249836985 498.66729734708105 584.3629249836985L498.66729734708105 584.3629249836985Q492.7987086023093 584.3629249836985 488.7552790365336 580.937241601583Q484.71184947075784 577.5115582194672 482.69013468786994 572.1483981704176Q480.6684199049821 566.7852381213677 480.6684199049821 561.1132049804879L480.6684199049821 561.1132049804879Q480.6684199049821 555.2726956077007 482.8024521758082 549.9937736746047Q484.9084050746497 544.742931113493 489.37302522019377 541.4014858473311Q493.80956599375327 538.0881199531538 500.68901212996894 538.0881199531538L500.68901212996894 538.0881199531538Q502.0929807291966 538.0881199531538 503.7215843043008 538.2846755570456Q505.35018787940487 538.4812311609376 507.14726768641634 538.8743423687213L507.14726768641634 538.8743423687213Q510.99414164830023 527.1652442511622 513.9424757066784 512.900923283009Q516.862730393072 498.6646816868402 518.5755720841297 484.9057894144088Q520.2884137751876 471.14689714197743 520.2884137751876 461.038323227538L520.2884137751876 461.038323227538Q520.2884137751876 456.9948936617623 519.8953025674037 455.2820519707045Q519.50219135962 453.5692102796467 518.4913339681761 451.7440511006507L518.4913339681761 451.7440511006507L518.2666989922997 451.1543842889751Q520.7096043549559 444.6680493605432 526.3535581238511 441.04581037453573Q532.025591264731 437.3954920165437 538.2872912172866 437.3954920165437L538.2872912172866 437.3954920165437Q545.1667373535022 437.3954920165437 549.6032781270617 442.3374614858252Q554.0678982726058 447.3075103270912 554.0678982726058 458.82005284075825L554.0678982726058 458.82005284075825Q554.0678982726058 466.09261018475775 552.3550565815481 476.93124777079555Q550.6141355185057 487.7418059848487 547.5815633441739 500.1809677740061Q544.5489911698421 512.5920501911789 540.9267521838347 524.7223388885061Q537.2764338258426 536.8526275858334 533.6541948398351 546.3715346885972L533.6541948398351 546.3715346885972Q542.5272763869541 548.393249471485 551.5407547939959 551.0046310660484Q560.5261538290531 553.6440920325965 569.2307591442649 553.6440920325965L569.2307591442649 553.6440920325965Q575.8855703046041 553.6440920325965 582.0630321412059 551.229266041925Q588.2404939778078 548.7863606792687 593.6878921428113 542.3281051228214L593.6878921428113 542.3281051228214Q597.7313217085871 544.9394867173849 599.6407190035366 549.7972180707127Q601.5781956704709 554.6549494240405 601.5781956704709 560.102347589044L601.5781956704709 560.102347589044Q601.5781956704709 566.1674919377076 599.0510521918611 571.9518425665257Q596.5239087132511 577.7081138233592 591.2730661521396 581.554987785243Q585.9941442190434 585.3737823751425 577.7107294836001 585.3737823751425Z " fill="#19191" transform="matrix(0.38882074628400703,0,0,0.38882074628400715,0,101.5560851531568)"/><path d="M762.4121472853135 584.7841155634668L762.4121472853135 584.7841155634668Q755.139589941314 584.7841155634668 749.2710011965422 578.7189712148032Q743.4304918237551 572.6538268661396 743.4304918237551 558.6983789898163L743.4304918237551 558.6983789898163Q743.4304918237551 547.3823920800411 746.0418734183186 536.4595163780496Q748.6813343848667 525.5366406760581 752.0227796510285 514.3329712542212Q755.3361455452059 503.1012224603997 757.6667334199238 491.08325125101067Q759.9973212946418 479.03720066963706 759.1830195070897 465.699498976974L759.1830195070897 465.699498976974Q753.7356213420862 466.513800764526 748.4847787809747 468.5355155474139Q743.2058568478786 470.5572303303018 738.151569890659 474.40410429218565L738.151569890659 474.40410429218565Q738.151569890659 461.6560694111982 740.3979196494232 453.68152776758495Q742.616190036203 445.6789067519871 749.0744455926504 442.0566677659796Q755.5607805210823 438.40634940798765 768.2807360300851 438.40634940798765L768.2807360300851 438.40634940798765Q775.1601821663008 438.40634940798765 783.6401525056361 439.4172067994316Q792.148202216956 440.42806419087555 801.1336012520131 441.43892158231944Q810.147079659055 442.44977897376344 818.2339387906064 442.44977897376344L818.2339387906064 442.44977897376344Q826.0961629462815 442.44977897376344 832.3859422708216 440.9334928865975Q838.647642223377 439.4172067994316 842.0733256054926 435.37377723365586L842.0733256054926 435.37377723365586Q846.1167551712684 438.01323820020394 848.2507874420945 442.5620964617016Q850.356740340936 447.1109547231993 850.356740340936 452.3617972843109L850.356740340936 452.3617972843109Q850.356740340936 457.80919544931436 847.8295968623262 462.97579989447223Q845.3024533837163 468.1143249676456 840.0516108226047 471.4557702338075Q834.8007682614932 474.7972154999694 826.3207979221579 474.7972154999694L826.3207979221579 474.7972154999694Q817.4196370030544 474.7972154999694 806.8898725088467 471.9611989295295Q796.3881873866235 469.12518235908954 785.2687560807402 467.1034675762017L785.2687560807402 467.1034675762017Q786.2796134721841 471.5680877217457 786.7850421679061 476.0046284953052Q787.2904708636281 480.4692486408493 787.2904708636281 485.1023450183007L787.2904708636281 485.1023450183007Q787.2904708636281 490.1566319755204 786.8973596558444 495.1266808167864Q786.4761690760761 500.06865028606785 785.661867288524 505.31949284717945L785.661867288524 505.31949284717945Q789.9299318301762 503.1012224603997 795.9950761788398 501.27606328140365Q802.0602205275035 499.4509041024077 808.4061585960126 498.24349110707186Q814.7801760365063 497.03607811173606 819.834462993726 497.03607811173606L819.834462993726 497.03607811173606Q823.0635907719497 497.03607811173606 825.5064961346059 497.65382429539625L825.5064961346059 497.65382429539625Q827.5282109174938 501.89380946506384 827.5282109174938 507.95895381372753L827.5282109174938 507.95895381372753Q827.5282109174938 517.6463371483985 822.6704795641659 527.7549110628379L822.6704795641659 527.7549110628379L821.2665109649382 528.3726572464982Q813.7693186450624 524.3292276807224 803.9696178224531 522.1109572939426Q794.1699169998437 519.8926869071629 783.4435969017443 519.0783851196109L783.4435969017443 519.0783851196109Q781.4218821188564 530.5909276332779 779.5967229398603 542.5246607267133Q777.7996431328489 554.4583938201486 777.7996431328489 566.9817937252596L777.7996431328489 566.9817937252596Q777.7996431328489 569.6212546918076 777.8838812488026 572.4572712622477Q777.9961987367408 575.2652084607031 778.1927543406327 578.1012250311429L778.1927543406327 578.1012250311429Q771.5098638083089 584.7841155634668 762.4121472853135 584.7841155634668ZM873.6064603441466 584.7841155634668L873.6064603441466 584.7841155634668Q868.1590621791431 584.7841155634668 862.9924577339852 582.060416480965Q857.8539326608119 579.3086380264789 854.6248048825883 573.2434936778151Q851.36759773238 567.1783493291515 851.36759773238 557.6875215983723L851.36759773238 557.6875215983723Q851.36759773238 549.207551259037 853.6981856070979 537.7792468613236Q856.028773481816 526.3509424636103 858.9490281682095 514.024098162391Q861.8973622265876 501.697253861172 864.1156326133674 489.96007637162853Q866.3339030001472 478.222898882085 866.1373473962552 469.12518235908954L866.1373473962552 469.12518235908954Q866.1373473962552 460.44865641586244 864.1156326133674 456.7983380578704L864.1156326133674 456.7983380578704L863.9190770094755 456.2086712461948Q866.1373473962552 449.7223363177629 871.8093805371351 446.1000973317554Q877.4533343060305 442.44977897376344 883.715034258586 442.44977897376344L883.715034258586 442.44977897376344Q890.7910359986936 442.44977897376344 896.3507516516352 447.81293902281317Q901.9104673045769 453.176099071863 901.9104673045769 465.699498976974L901.9104673045769 465.699498976974Q901.9104673045769 472.3823895092978 900.3099431014573 481.5643441482469Q898.6813395263532 490.77437815918057 896.4630691395735 501.19182516545004Q894.2447987527937 511.58119279973494 891.9142108780757 521.6897667141743Q889.5836230033577 531.7983406286137 887.9830988002382 540.3063903399335Q886.3544952251341 548.7863606792687 886.3544952251341 554.2618382162568L886.3544952251341 554.2618382162568Q886.3544952251341 559.9057919851521 887.9830988002382 562.0398242559781Q889.5836230033577 564.1457771548197 891.6053377862456 564.1457771548197L891.6053377862456 564.1457771548197Q893.8236081730254 564.1457771548197 895.8453229559133 562.4329354637619Q897.8670377388011 560.7200937727041 898.4847839224612 559.3161251734764L898.4847839224612 559.3161251734764L900.1133874975654 559.7092363812602Q899.888752521689 566.9817937252596 895.9576404438515 572.6538268661396Q892.026528366014 578.2977806350349 886.0456221333039 581.554987785243Q880.0927952725785 584.7841155634668 873.6064603441466 584.7841155634668ZM986.0362657703001 584.9806711673588L986.0362657703001 584.9806711673588Q978.9602640301925 584.9806711673588 973.6813420970964 580.3194954179227Q968.4304995359848 575.6863990404714 968.4304995359848 565.1566345462636L968.4304995359848 565.1566345462636Q968.4304995359848 564.1457771548197 968.4304995359848 563.1349197633758Q968.4304995359848 562.1240623719318 968.6270551398768 561.1132049804879L968.6270551398768 561.1132049804879Q962.5619107912131 573.2434936778151 954.9804803553836 579.0278443066333Q947.399049919554 584.7841155634668 939.7333813677709 584.7841155634668L939.7333813677709 584.7841155634668Q932.6573796276633 584.7841155634668 926.3956796751078 579.8140667222009Q920.1059003505677 574.8720972529194 916.2871057606684 565.1566345462636Q912.4402317987846 555.4692512115926 912.4402317987846 541.7103589391612L912.4402317987846 541.7103589391612Q912.4402317987846 527.558355458946 916.3713438766221 516.4389241530628Q920.3305353264441 505.31949284717945 926.7887908828916 497.65382429539625Q933.2470464393389 489.96007637162853 940.9407943631066 486.0289642937909Q948.6345422868744 482.06977284396885 955.9070996308739 482.06977284396885L955.9070996308739 482.06977284396885Q963.9939587624253 482.06977284396885 970.4522143188727 487.03982168523487Q976.9385492473048 491.9817911545164 979.3533752379764 502.70811125261594L979.3533752379764 502.70811125261594Q979.9711214216366 499.2543484985158 980.2519151414821 496.4183319280759Q980.5607882333121 493.6103947296205 980.5607882333121 492.59953733817656L980.5607882333121 492.59953733817656Q980.757343837204 487.12405980118854 986.1205038862538 484.512678206625Q991.4836639353035 481.873217240077 997.9419194917509 481.873217240077L997.9419194917509 481.873217240077Q1003.6139526326308 481.873217240077 1008.6682395898506 484.09148762685675Q1013.7225265470702 486.3097580136365 1015.5476857260662 491.5886799467326L1015.5476857260662 491.5886799467326L1015.9407969338499 492.7960929420684Q1013.5259709431783 498.24349110707186 1011.0830655805221 505.93723903083963Q1008.6682395898506 513.6029075826228 1006.6465248069626 521.9986398060043Q1004.6248100240748 530.394372029386 1003.417397028739 538.3689136729993Q1002.2099840334031 546.3715346885972 1002.2099840334031 552.4366790372608L1002.2099840334031 552.4366790372608Q1002.2099840334031 559.0914901976 1003.6139526326308 561.6186336762098Q1005.0179212318585 564.1457771548197 1007.0396360147464 564.1457771548197L1007.0396360147464 564.1457771548197Q1010.4933987688464 564.1457771548197 1013.3294153392865 559.3161251734764L1013.3294153392865 559.3161251734764L1014.929939542406 560.102347589044Q1014.929939542406 566.9817937252596 1010.4933987688464 572.6538268661396Q1006.0287786233025 578.2977806350349 999.3739674629633 581.6392259011967Q992.6910769306394 584.9806711673588 986.0362657703001 584.9806711673588ZM953.0710830604339 559.3161251734764L953.0710830604339 559.3161251734764Q958.3219256215455 559.3161251734764 964.6959430620392 549.909535558651Q971.0699605025329 540.5029459438254 975.7030568799844 522.9252590814947L975.7030568799844 522.9252590814947Q976.1242474597526 521.1000999024986 976.5173586675364 519.3872582114409Q976.9385492473048 517.6463371483985 977.1351048511965 516.0458129452791L977.1351048511965 516.0458129452791Q973.9059770729729 508.54862062540315 970.3679762029191 505.43181033511763Q966.8299753328653 502.28692067284766 963.3762125787653 502.28692067284766L963.3762125787653 502.28692067284766Q958.3219256215455 502.28692067284766 953.9696229639396 507.6500807218974Q949.6453996783184 513.0132407709473 946.893621223832 521.1000999024986Q944.1699221413304 529.1869590340502 944.1699221413304 537.2738181656017L944.1699221413304 537.2738181656017Q944.1699221413304 548.393249471485 946.6970656199402 553.8406476364885Q949.2242090985501 559.3161251734764 953.0710830604339 559.3161251734764ZM1056.5716481954994 584.7841155634668L1056.5716481954994 584.7841155634668Q1044.8625500779403 584.7841155634668 1037.9831039417247 578.6066537268649Q1031.103657805509 572.4572712622477 1031.103657805509 559.5126807773684L1031.103657805509 559.5126807773684Q1031.103657805509 552.0154884574924 1033.0411344724432 543.5355181181571Q1034.950531767393 535.055547778822 1036.775690946389 528.3726572464982L1036.775690946389 528.3726572464982Q1038.6008501253848 521.9144016900507 1039.6959456327825 517.056670336723Q1040.8191205121648 512.1989389833951 1040.8191205121648 509.5594780168471L1040.8191205121648 509.5594780168471Q1040.8191205121648 506.3303502386234 1039.3870725409524 504.9263816393957Q1037.9831039417247 503.49433366818346 1035.961389158837 503.49433366818346L1035.961389158837 503.49433366818346Q1031.103657805509 503.49433366818346 1027.8745300272853 508.1555094176194L1027.8745300272853 508.1555094176194L1027.0602282397333 507.34120763006734Q1027.2567838436253 500.4617614938516 1031.5248483852774 494.70549023701807Q1035.764833554945 488.9492189801845 1042.4196447152842 485.523535598069Q1049.102535247608 482.06977284396885 1055.9819813838237 482.06977284396885L1055.9819813838237 482.06977284396885Q1063.647649935607 482.06977284396885 1069.123127472595 486.6186311054666Q1074.5705256375984 491.16748936696433 1074.1774144298147 500.88295207361995L1074.1774144298147 500.88295207361995Q1073.9808588259227 505.1229372432876 1072.6611283426487 511.58119279973494Q1071.3413978593746 518.0675277281669 1069.123127472595 526.9686886472705L1069.123127472595 526.9686886472705Q1067.6910795013828 532.6126424161657 1066.1747934142168 539.8009616442116Q1064.6585073270508 546.9612015002728 1064.6585073270508 552.8297902450445L1064.6585073270508 552.8297902450445Q1064.6585073270508 557.2944103905886 1066.090555298263 559.9057919851521Q1067.4945238974908 562.5452529517001 1070.7236516757143 562.5452529517001L1070.7236516757143 562.5452529517001Q1074.9917162173667 562.5452529517001 1080.13024129054 557.7998390863106Q1085.2968457356978 553.0263458489364 1089.1437196975817 542.2157876348831Q1092.962514287481 531.40522942083 1093.5802604711412 513.406351978731L1093.5802604711412 513.406351978731Q1094.1980066548015 499.6755390782841 1091.7551012921454 493.3857597537441L1091.7551012921454 493.3857597537441L1091.7551012921454 492.37490236230013Q1093.5802604711412 489.56696516384477 1097.314816945087 486.9275041972967Q1101.0493734190327 484.2880432307486 1105.7105491684686 482.57520153969085Q1110.3717249179044 480.86235984863305 1114.4151544836802 480.86235984863305L1114.4151544836802 480.86235984863305Q1120.8734100401275 480.86235984863305 1125.4222683016253 487.12405980118854Q1129.971126563123 493.3857597537441 1129.3533803794628 508.9698112051714L1129.3533803794628 508.9698112051714Q1128.960269171679 523.9361164729387 1124.0182997023976 536.0664051702659Q1119.0482508611317 548.1966938675931 1111.1579473334718 557.2944103905886Q1103.2957231777968 566.392126913584 1093.8891335629714 572.4572712622477Q1084.4825439481458 578.5224156109113 1074.7670812414901 581.6392259011967Q1065.079697906819 584.7841155634668 1056.5716481954994 584.7841155634668ZM1176.6671221734362 475.80807289141336L1176.6671221734362 475.80807289141336Q1168.5802630418846 475.80807289141336 1163.441737968711 470.86610342213186Q1158.2751335235532 465.89605458086584 1158.2751335235532 458.42694163297455L1158.2751335235532 458.42694163297455Q1158.2751335235532 450.340082501423 1164.340277872217 444.4714937566513Q1170.4054222208806 438.6029050118795 1179.1100275360923 438.6029050118795L1179.1100275360923 438.6029050118795Q1187.1968866676439 438.6029050118795 1192.335411740817 443.6571919690992Q1197.502016185975 448.7114789263189 1197.502016185975 456.2086712461948L1197.502016185975 456.2086712461948Q1197.502016185975 464.2955303777463 1191.4368718373114 470.0518016345798Q1185.3717274886478 475.80807289141336 1176.6671221734362 475.80807289141336ZM1162.515118693221 584.7841155634668L1162.515118693221 584.7841155634668Q1154.6248151655614 584.7841155634668 1148.3631152130058 579.2243999105252Q1142.1014152604503 573.6646842575834 1142.1014152604503 561.3378399563644L1142.1014152604503 561.3378399563644Q1142.1014152604503 554.2618382162568 1144.0108125554 548.0843763796549Q1145.948289222334 541.9069145430531 1148.475432700944 536.0664051702659Q1151.002576179554 530.1978164254941 1152.9119734745036 524.6381007725524Q1154.8494501414377 519.0783851196109 1154.8494501414377 513.6029075826228L1154.8494501414377 513.6029075826228Q1154.8494501414377 508.7732556012796 1153.2208465663336 506.6392233304535Q1151.5922429912293 504.5051910596274 1149.3739726044498 504.5051910596274L1149.3739726044498 504.5051910596274Q1145.948289222334 504.5051910596274 1142.7191614441106 508.9698112051714L1142.7191614441106 508.9698112051714L1141.2871134728982 508.1555094176194Q1142.1014152604503 500.06865028606785 1146.453717918056 494.31237902923436Q1150.806020575662 488.5561077724008 1157.1519586441711 485.29890062219255Q1163.5259760846648 482.06977284396885 1169.7876760372205 482.06977284396885L1169.7876760372205 482.06977284396885Q1177.4814239609882 482.06977284396885 1183.153457101868 487.03982168523487Q1188.7974108707633 491.9817911545164 1188.7974108707633 503.1012224603997L1188.7974108707633 503.1012224603997Q1188.7974108707633 509.78411299272346 1186.8880135758136 517.1409084526765Q1184.9505369088795 524.5257832846142 1182.4233934302697 531.7983406286137Q1179.8962499516597 539.0989773445976 1177.9868526567102 545.3606772971532Q1176.0774553617605 551.6223772497087 1176.0774553617605 556.0589180232682L1176.0774553617605 556.0589180232682Q1176.0774553617605 559.9057919851521 1177.5937414489263 561.5343955602561Q1179.1100275360923 563.1349197633758 1180.9071073431037 563.1349197633758L1180.9071073431037 563.1349197633758Q1182.7322665220997 563.1349197633758 1184.4451082131575 562.0398242559781Q1186.1860292761999 560.9166493765961 1186.9722516917673 559.5126807773684L1186.9722516917673 559.5126807773684L1188.4042996629796 559.9057919851521Q1188.4042996629796 567.402984305028 1184.4451082131575 572.9626999579697Q1180.51399613532 578.5224156109113 1174.6454073905481 581.6392259011967Q1168.7768186457765 584.7841155634668 1162.515118693221 584.7841155634668ZM1248.4379969659558 585.3737823751425L1248.4379969659558 585.3737823751425Q1233.2751360942966 585.3737823751425 1223.363117783749 579.3086380264789Q1213.4791788451862 573.2434936778151 1208.705685607812 563.247237251314Q1203.9602717424223 553.2509808248128 1203.9602717424223 541.9069145430531L1203.9602717424223 541.9069145430531Q1203.9602717424223 531.208673816938 1207.9194631922444 520.4823537188386Q1211.8505752700821 509.78411299272346 1219.4320057059115 500.9671901895736Q1227.013436141741 492.1783467584083 1237.9363118437325 486.81518670935844Q1248.8591875457241 481.48010603229324 1263.011191025939 481.48010603229324L1263.011191025939 481.48010603229324Q1278.174051897598 481.48010603229324 1287.9737527202074 487.6294884969105Q1297.7734535428167 493.80695033351236 1302.5188674082065 503.91552424795174Q1307.2642812735958 514.024098162391 1307.2642812735958 525.5366406760581L1307.2642812735958 525.5366406760581Q1307.2642812735958 536.0664051702659 1303.4454866836966 546.6804077804272Q1299.5986127218127 557.2944103905886 1292.0171822859834 566.0832538217539Q1284.4357518501538 574.8720972529194 1273.5128761481621 580.1229398140309Q1262.590000446171 585.3737823751425 1248.4379969659558 585.3737823751425ZM1253.9134745029437 568.1892067205955L1253.9134745029437 568.1892067205955Q1259.3608726679472 568.1892067205955 1263.011191025939 562.5452529517001Q1266.6334300119465 556.8732198108203 1268.4585891909426 548.0843763796549Q1270.2837483699386 539.2955329484896 1270.2837483699386 530.1978164254941L1270.2837483699386 530.1978164254941Q1270.2837483699386 522.1109572939426 1268.7674622827726 514.9226380658968Q1267.2511761956066 507.7623982098356 1264.218604021275 503.2135399483379Q1261.186031846943 498.6646816868402 1256.3283004936152 498.6646816868402L1256.3283004936152 498.6646816868402Q1251.0774579325036 498.6646816868402 1247.3429014585581 504.3086354557355Q1243.580265612628 509.9806685966154 1241.7831858056163 518.6571945398425Q1239.9580266266203 527.3617998550542 1239.9580266266203 536.6560719819415L1239.9580266266203 536.6560719819415Q1239.9580266266203 544.742931113493 1241.4743127137863 551.9312503415388Q1242.9905988009523 559.0914901976 1246.023170975284 563.6403484590978Q1249.0557431496159 568.1892067205955 1253.9134745029437 568.1892067205955ZM1445.9763788772918 585.3737823751425L1445.9763788772918 585.3737823751425Q1438.6757421613079 585.3737823751425 1429.4937875223588 582.762400780579Q1420.2837535114252 580.1229398140309 1410.2874970849239 577.0061295237455Q1400.2631612864382 573.8612398614754 1390.3792223478752 572.4572712622477L1390.3792223478752 572.4572712622477Q1383.4997762116598 578.915526818695 1377.5188699789496 581.6392259011967Q1371.5660431182243 584.3629249836985 1366.9048673687882 584.3629249836985L1366.9048673687882 584.3629249836985Q1361.064357996001 584.3629249836985 1357.0209284302252 580.937241601583Q1352.9774988644497 577.5115582194672 1350.9557840815617 572.1483981704176Q1348.9340692986736 566.7852381213677 1348.9340692986736 561.1132049804879L1348.9340692986736 561.1132049804879Q1348.9340692986736 555.2726956077007 1351.0400221975153 549.9937736746047Q1353.1740544683414 544.742931113493 1357.610595241901 541.4014858473311Q1362.075215387445 538.0881199531538 1368.9265821516763 538.0881199531538L1368.9265821516763 538.0881199531538Q1370.3586301228884 538.0881199531538 1371.959154326008 538.2846755570456Q1373.587757901112 538.4812311609376 1375.4129170801082 538.8743423687213L1375.4129170801082 538.8743423687213Q1379.259791041992 527.1652442511622 1382.1800457283855 512.900923283009Q1385.100300414779 498.6646816868402 1386.8412214778214 484.9057894144088Q1388.5540631688793 471.14689714197743 1388.5540631688793 461.038323227538L1388.5540631688793 461.038323227538Q1388.5540631688793 456.9948936617623 1388.132872589111 455.2820519707045Q1387.739761381327 453.5692102796467 1386.7289039898833 451.7440511006507L1386.7289039898833 451.7440511006507L1386.5323483859913 451.1543842889751Q1388.9471743766628 444.6680493605432 1394.619207517543 441.04581037453573Q1400.2631612864382 437.3954920165437 1406.5529406109783 437.3954920165437L1406.5529406109783 437.3954920165437Q1413.4043073752093 437.3954920165437 1417.8689275207535 442.3374614858252Q1422.305468294313 447.3075103270912 1422.305468294313 458.82005284075825L1422.305468294313 458.82005284075825Q1422.305468294313 466.09261018475775 1420.5926266032552 476.93124777079555Q1418.8797849121972 487.7418059848487 1415.8472127378657 500.1809677740061Q1412.8146405635337 512.5920501911789 1409.1643222055418 524.7223388885061Q1405.5420832195343 536.8526275858334 1401.8917648615422 546.3715346885972L1401.8917648615422 546.3715346885972Q1410.7929257806459 548.393249471485 1419.7783248157032 551.0046310660484Q1428.7918032227449 553.6440920325965 1437.468329165972 553.6440920325965L1437.468329165972 553.6440920325965Q1444.1512196982958 553.6440920325965 1450.300602162913 551.229266041925Q1456.478063999515 548.7863606792687 1461.9254621645184 542.3281051228214L1461.9254621645184 542.3281051228214Q1465.968891730294 544.9394867173849 1467.9063683972283 549.7972180707127Q1469.8157656921778 554.6549494240405 1469.8157656921778 560.102347589044L1469.8157656921778 560.102347589044Q1469.8157656921778 566.1674919377076 1467.2886222135683 571.9518425665257Q1464.7614787349582 577.7081138233592 1459.510636173847 581.554987785243Q1454.2597936127352 585.3737823751425 1445.9763788772918 585.3737823751425ZM1525.019811013811 585.3737823751425L1525.019811013811 585.3737823751425Q1510.2500613499355 585.3737823751425 1500.5626780152645 579.420955514417Q1490.8472153086088 573.4681286536917 1485.989483955281 563.6403484590978Q1481.1317526019532 553.8406476364885 1481.1317526019532 542.5246607267133L1481.1317526019532 542.5246607267133Q1481.1317526019532 531.7983406286137 1485.2874996556673 520.9877824145605Q1489.4432467093811 510.1772242005073 1497.4177883529944 501.27606328140365Q1505.3923299966077 492.37490236230013 1516.8206343943211 486.9275041972967Q1528.2489387920346 481.48010603229324 1542.5974978761417 481.48010603229324L1542.5974978761417 481.48010603229324Q1560.3998197143487 481.48010603229324 1568.5709169618538 489.45464767590653Q1576.7700935813434 497.4291893195198 1576.7700935813434 508.7732556012796L1576.7700935813434 508.7732556012796Q1576.7700935813434 518.4606389359506 1571.6034891361858 526.6598155554404Q1566.4649640630123 534.8309128029455 1557.9569143516926 539.8009616442116Q1549.476944012357 544.742931113493 1539.368370097918 544.742931113493L1539.368370097918 544.742931113493Q1534.1175275368064 544.742931113493 1528.6420499998183 543.1424069103734Q1523.194651834815 541.5138033352694 1517.9438092737034 538.0881199531538L1517.9438092737034 538.0881199531538Q1518.9546666651472 550.6115198582647 1525.2163666177028 556.2835529991446Q1531.4780665702583 561.92750676804 1540.1826718854697 561.92750676804L1540.1826718854697 561.92750676804Q1546.2478162341338 561.92750676804 1552.3129605827971 559.596918893322Q1558.378104931461 557.2944103905886 1563.5166300046342 553.5317745446583Q1568.6832344497923 549.7972180707127 1571.519251020232 545.5572329010452L1571.519251020232 545.5572329010452L1572.9232196194596 546.5680902924889Q1572.9232196194596 557.0697754147122 1568.5709169618538 564.4546502466499Q1564.2466936762326 571.8395250785874 1557.170691936125 576.5007008280235Q1550.0946901960176 581.1337972054747 1541.6989579726358 583.2678294763008Q1533.3032257492541 585.3737823751425 1525.019811013811 585.3737823751425ZM1529.6529073912623 530.7874832371697L1529.6529073912623 530.7874832371697Q1536.1392423196942 530.7874832371697 1540.1826718854697 527.0529267632241Q1544.2261014512458 523.3183702892784 1546.2478162341338 518.2640833320588Q1548.2695310170213 513.209796374839 1548.2695310170213 509.3629224129552L1548.2695310170213 509.3629224129552Q1548.2695310170213 504.7298260355038 1545.6300700504733 501.5849363732338Q1543.01868845591 498.44004671096377 1538.357512706474 498.44004671096377L1538.357512706474 498.44004671096377Q1534.7071943484818 498.44004671096377 1530.3829710628609 501.0795076775118Q1526.0306684052548 503.7189686440599 1522.5769056511547 510.06490671256904Q1519.1512222690392 516.4389241530628 1518.1403648775952 527.7549110628379L1518.1403648775952 527.7549110628379Q1524.5986204340427 530.7874832371697 1529.6529073912623 530.7874832371697ZM1630.9632815115326 585.3737823751425L1630.9632815115326 585.3737823751425Q1615.8004206398734 585.3737823751425 1605.888402329326 579.3086380264789Q1595.9763840187782 573.2434936778151 1591.2309701533889 563.247237251314Q1586.485556287999 553.2509808248128 1586.485556287999 541.9069145430531L1586.485556287999 541.9069145430531Q1586.485556287999 531.208673816938 1590.4166683658368 520.4823537188386Q1594.3477804436743 509.78411299272346 1601.9292108795037 500.9671901895736Q1609.5106413153333 492.1783467584083 1620.4335170173247 486.81518670935844Q1631.3563927193163 481.48010603229324 1645.5083961995313 481.48010603229324L1645.5083961995313 481.48010603229324Q1660.6712570711904 481.48010603229324 1670.4709578937998 487.6294884969105Q1680.2706587164091 493.80695033351236 1685.0441519537833 503.91552424795174Q1689.7895658191728 514.024098162391 1689.7895658191728 525.5366406760581L1689.7895658191728 525.5366406760581Q1689.7895658191728 536.0664051702659 1685.9426918572888 546.6804077804272Q1682.095817895405 557.2944103905886 1674.5143874595753 566.0832538217539Q1666.932957023746 574.8720972529194 1656.0100813217543 580.1229398140309Q1645.1152849917476 585.3737823751425 1630.9632815115326 585.3737823751425ZM1636.410679676536 568.1892067205955L1636.410679676536 568.1892067205955Q1641.8580778415394 568.1892067205955 1645.5083961995313 562.5452529517001Q1649.1587145575234 556.8732198108203 1650.9557943645348 548.0843763796549Q1652.7809535435306 539.2955329484896 1652.7809535435306 530.1978164254941L1652.7809535435306 530.1978164254941Q1652.7809535435306 522.1109572939426 1651.2646674563648 514.9226380658968Q1649.748381369199 507.7623982098356 1646.715809194867 503.2135399483379Q1643.6832370205354 498.6646816868402 1638.8255056672076 498.6646816868402L1638.8255056672076 498.6646816868402Q1633.574663106096 498.6646816868402 1629.8401066321503 504.3086354557355Q1626.1055501582048 509.9806685966154 1624.2803909792085 518.6571945398425Q1622.4552318002127 527.3617998550542 1622.4552318002127 536.6560719819415L1622.4552318002127 536.6560719819415Q1622.4552318002127 544.742931113493 1623.9715178873787 551.9312503415388Q1625.4878039745445 559.0914901976 1628.5203761488763 563.6403484590978Q1631.5529483232083 568.1892067205955 1636.410679676536 568.1892067205955ZM1725.1695745197105 584.5875599595748L1725.1695745197105 584.5875599595748Q1717.6723821998346 584.5875599595748 1711.607237851171 578.6066537268649Q1705.5420935025074 572.6538268661396 1705.5420935025074 561.92750676804L1705.5420935025074 561.92750676804Q1705.5420935025074 556.6766642069283 1706.9741414737198 549.9937736746047Q1708.3781100729473 543.3389625142654 1710.0909517640052 536.4595163780496Q1711.8318728270476 529.5800702418339 1713.235841426275 523.5149258931704Q1714.6398100255026 517.4497815445068 1714.6398100255026 513.6029075826228L1714.6398100255026 513.6029075826228Q1714.6398100255026 509.5594780168471 1713.0392858223834 507.2569695141137Q1711.4106822472793 504.9263816393957 1708.7993006527156 504.9263816393957L1708.7993006527156 504.9263816393957Q1705.3455378986155 504.9263816393957 1701.3021083328397 508.9698112051714L1701.3021083328397 508.9698112051714L1700.094695337504 508.1555094176194Q1699.8981397336122 504.9263816393957 1701.4986639367319 500.4617614938516Q1703.127267511836 496.0252207202921 1706.4687127779978 491.86947366657813Q1709.8101580441596 487.7418059848487 1715.0610006052711 484.9057894144088Q1720.3118431663827 482.06977284396885 1727.584400510382 482.06977284396885L1727.584400510382 482.06977284396885Q1738.3107206084817 482.06977284396885 1743.4492456816554 488.24723468057067Q1748.615850126813 494.396617145188 1748.615850126813 503.29777806429155L1748.615850126813 503.29777806429155Q1748.615850126813 506.52690584251525 1747.998103943153 509.5594780168471L1747.998103943153 509.5594780168471Q1752.2661684848051 503.29777806429155 1758.5278684373604 496.9237606237978Q1764.7895683899158 490.57782255528866 1772.3709988257453 486.3097580136365Q1779.952429261575 482.06977284396885 1788.0392883931265 482.06977284396885L1788.0392883931265 482.06977284396885Q1797.5301161239056 482.06977284396885 1800.983878878006 488.1349171926325Q1804.4095622601214 494.2000615412961 1804.4095622601214 503.29777806429155L1804.4095622601214 503.29777806429155Q1804.4095622601214 511.80582777561136 1802.5844030811256 521.4932111102825Q1800.7873232741138 531.208673816938 1798.962164095118 540.1940728519953Q1797.1370049161221 549.207551259037 1797.1370049161221 555.2726956077007L1797.1370049161221 555.2726956077007Q1797.1370049161221 563.3595547392522 1801.7981806655582 563.3595547392522L1801.7981806655582 563.3595547392522Q1804.2130066562297 563.3595547392522 1806.0381658352255 561.8432686520863Q1807.8633250142218 560.3269825649204 1808.452991825897 558.8949345937081L1808.452991825897 558.8949345937081L1809.8850397971094 559.5126807773684Q1809.8850397971094 566.9817937252596 1805.7292927433953 572.6538268661396Q1801.5735456896816 578.2977806350349 1795.3118457371259 581.442670297305Q1789.0501457845705 584.5875599595748 1782.591890228123 584.5875599595748L1782.591890228123 584.5875599595748Q1774.7015867004636 584.5875599595748 1768.6364423517996 579.1120824225869Q1762.5712980031365 573.6646842575834 1762.5712980031365 561.3378399563644L1762.5712980031365 561.3378399563644Q1762.5712980031365 554.0372032403803 1764.480695298086 545.5572329010452Q1766.4181719650203 537.0772625617099 1768.2152517720317 529.1869590340502Q1770.0404109510275 521.2966555063906 1770.0404109510275 516.2423685491708L1770.0404109510275 516.2423685491708Q1770.0404109510275 513.209796374839 1768.9453154436299 511.49695468378127Q1767.8221405642478 509.78411299272346 1764.986123993808 509.78411299272346L1764.986123993808 509.78411299272346Q1760.3530276163565 509.78411299272346 1754.7933119634147 514.024098162391Q1749.2335963104733 518.2640833320588 1745.2744048606512 525.3400850721664Q1741.3432927828137 532.4160868122739 1741.3432927828137 540.896057151609L1741.3432927828137 540.896057151609Q1741.3432927828137 546.3715346885972 1742.6630232660875 551.4258216458168Q1743.954674377377 556.4801086030366 1743.954674377377 562.3486973478082L1743.954674377377 562.3486973478082Q1743.954674377377 573.2434936778151 1738.3107206084817 578.915526818695Q1732.6386874676018 584.5875599595748 1725.1695745197105 584.5875599595748ZM1894.1793144947399 584.9806711673588L1894.1793144947399 584.9806711673588Q1887.1033127546323 584.9806711673588 1881.852470193521 580.3194954179227Q1876.6016276324092 575.6863990404714 1876.6016276324092 565.1566345462636L1876.6016276324092 565.1566345462636Q1876.6016276324092 564.1457771548197 1876.6016276324092 563.1349197633758Q1876.6016276324092 562.1240623719318 1876.798183236301 561.1132049804879L1876.798183236301 561.1132049804879Q1870.7330388876378 573.2434936778151 1863.1516084518082 579.0278443066333Q1855.5701780159786 584.7841155634668 1847.876430092211 584.7841155634668L1847.876430092211 584.7841155634668Q1840.800428352103 584.7841155634668 1834.5387283995476 579.8140667222009Q1828.2770284469923 574.8720972529194 1824.4301544851085 565.1566345462636Q1820.5832805232246 555.4692512115926 1820.5832805232246 541.7103589391612L1820.5832805232246 541.7103589391612Q1820.5832805232246 527.558355458946 1824.5424719730465 516.4389241530628Q1828.473584050884 505.31949284717945 1834.9318396073315 497.65382429539625Q1841.4181745357635 489.96007637162853 1849.0838430875467 486.0289642937909Q1856.7775910113144 482.06977284396885 1864.0501483553137 482.06977284396885L1864.0501483553137 482.06977284396885Q1872.1370074868653 482.06977284396885 1878.6233424152972 487.03982168523487Q1885.0815979717447 491.9817911545164 1887.4964239624162 502.70811125261594L1887.4964239624162 502.70811125261594Q1888.1141701460763 499.2543484985158 1888.4230432379065 496.4183319280759Q1888.7319163297368 493.6103947296205 1888.7319163297368 492.59953733817656L1888.7319163297368 492.59953733817656Q1888.9284719336285 487.12405980118854 1894.2916319826784 484.512678206625Q1899.6267126597434 481.873217240077 1906.1130475881753 481.873217240077L1906.1130475881753 481.873217240077Q1911.757001357071 481.873217240077 1916.81128831429 484.09148762685675Q1921.8655752715101 486.3097580136365 1923.6907344505064 491.5886799467326L1923.6907344505064 491.5886799467326L1924.1119250302743 492.7960929420684Q1921.6690196676184 498.24349110707186 1919.2541936769464 505.93723903083963Q1916.81128831429 513.6029075826228 1914.7895735314025 521.9986398060043Q1912.7678587485145 530.394372029386 1911.5604457531792 538.3689136729993Q1910.353032757843 546.3715346885972 1910.353032757843 552.4366790372608L1910.353032757843 552.4366790372608Q1910.353032757843 559.0914901976 1911.757001357071 561.6186336762098Q1913.1890493282829 564.1457771548197 1915.2107641111709 564.1457771548197L1915.2107641111709 564.1457771548197Q1918.6364474932864 564.1457771548197 1921.4724640637266 559.3161251734764L1921.4724640637266 559.3161251734764L1923.1010676388303 560.102347589044Q1923.1010676388303 566.9817937252596 1918.6364474932864 572.6538268661396Q1914.1999067197273 578.2977806350349 1907.5170161874032 581.6392259011967Q1900.862205027064 584.9806711673588 1894.1793144947399 584.9806711673588ZM1861.2141317848739 559.3161251734764L1861.2141317848739 559.3161251734764Q1866.49305371797 559.3161251734764 1872.8389917864795 549.909535558651Q1879.2130092269729 540.5029459438254 1883.874184976409 522.9252590814947L1883.874184976409 522.9252590814947Q1884.2672961841924 521.1000999024986 1884.6884867639608 519.3872582114409Q1885.0815979717447 517.6463371483985 1885.2781535756365 516.0458129452791L1885.2781535756365 516.0458129452791Q1882.0490257974127 508.54862062540315 1878.5110249273591 505.43181033511763Q1874.973024057305 502.28692067284766 1871.5473406751896 502.28692067284766L1871.5473406751896 502.28692067284766Q1866.49305371797 502.28692067284766 1862.1407510603642 507.6500807218974Q1857.7884484027584 513.0132407709473 1855.0647493202566 521.1000999024986Q1852.3410502377549 529.1869590340502 1852.3410502377549 537.2738181656017L1852.3410502377549 537.2738181656017Q1852.3410502377549 548.393249471485 1854.8681937163644 553.8406476364885Q1857.3953371949744 559.3161251734764 1861.2141317848739 559.3161251734764ZM1958.256441363492 584.7841155634668L1958.256441363492 584.7841155634668Q1950.9838840194923 584.7841155634668 1945.339930250597 578.8032093307569Q1939.6678971097174 572.8503824700314 1939.6678971097174 561.92750676804L1939.6678971097174 561.92750676804Q1939.6678971097174 556.6766642069283 1940.8753101050531 549.9937736746047Q1942.0827231003889 543.3389625142654 1943.711326675493 536.3471988901115Q1945.339930250597 529.3835146379421 1946.5473432459332 523.2060528013403Q1947.754756241269 517.056670336723 1947.754756241269 513.0132407709473L1947.754756241269 513.0132407709473Q1947.754756241269 508.7732556012796 1946.238470154103 506.24611212266973Q1944.722184066937 503.7189686440599 1942.3073580762655 503.7189686440599L1942.3073580762655 503.7189686440599Q1938.4604841143816 503.7189686440599 1934.4170545486056 508.9698112051714L1934.4170545486056 508.9698112051714L1933.2096415532699 508.1555094176194Q1932.9850065773937 504.9263816393957 1934.6136101524974 500.4617614938516Q1936.242213727602 496.0252207202921 1939.6678971097174 491.86947366657813Q1943.0935804918329 487.7418059848487 1948.4567405408827 484.9057894144088Q1953.8199005899326 482.06977284396885 1961.0924579339319 482.06977284396885L1961.0924579339319 482.06977284396885Q1971.8187780320316 482.06977284396885 1976.6765093853594 488.24723468057067Q1981.5061613667024 494.396617145188 1981.5061613667024 503.1012224603997L1981.5061613667024 503.1012224603997Q1981.5061613667024 504.5051910596274 1981.4219232507492 506.0214771467933Q1981.3096057628106 507.5377632339592 1981.113050158919 508.9698112051714L1981.113050158919 508.9698112051714Q1988.3856075029182 495.82866511640026 1996.3882285185161 488.83690149224634Q2004.3627701621292 481.873217240077 2011.242216298345 481.873217240077L2011.242216298345 481.873217240077Q2017.700471854792 481.873217240077 2020.7330440291241 486.9275041972967Q2023.7656162034561 491.9817911545164 2023.7656162034561 499.05779289462396L2023.7656162034561 499.05779289462396Q2023.7656162034561 505.5160484510713 2021.2384727248461 512.1989389833951Q2018.7113292462366 518.8818295157189 2013.769359776955 523.2060528013403Q2008.7993109356892 527.558355458946 2001.7233091955811 527.3617998550542L2001.7233091955811 527.3617998550542L2000.9370867800137 526.9686886472705Q2000.7124518041371 521.6897667141743 1997.4833240259138 518.6571945398425Q1994.25419624769 515.6246223655107 1990.2107666819145 515.6246223655107L1990.2107666819145 515.6246223655107Q1984.7633685169105 515.6246223655107 1979.9898752795364 521.1000999024986Q1975.244461414147 526.5474980675021 1975.244461414147 536.8526275858334L1975.244461414147 536.8526275858334Q1975.244461414147 543.1424069103734 1976.6765093853594 550.4149642543729Q1978.0804779845869 557.6875215983723 1978.0804779845869 562.7418085555921L1978.0804779845869 562.7418085555921Q1978.0804779845869 568.8069529042556 1975.244461414147 573.8612398614754Q1972.4084448437072 578.915526818695 1967.9719040701473 581.8357815050887Q1963.5353632965882 584.7841155634668 1958.256441363492 584.7841155634668ZM2058.7525136962104 584.7841155634668L2058.7525136962104 584.7841155634668Q2051.479956352211 584.7841155634668 2045.1059389117165 579.729828606247Q2038.7319214712231 574.6755416490274 2034.8008093933856 564.9600789423719Q2030.8416179435637 555.2726956077007 2030.8416179435637 541.5138033352694L2030.8416179435637 541.5138033352694Q2030.8416179435637 527.3617998550542 2034.8850475093393 516.2423685491708Q2038.9284770751149 505.1229372432876 2045.4990501195005 497.34495120356615Q2052.0696231638867 489.56696516384477 2059.847609203607 485.523535598069Q2067.6536746153133 481.48010603229324 2075.122787563205 481.48010603229324L2075.122787563205 481.48010603229324Q2083.406202298648 481.48010603229324 2089.8925372270805 486.6186311054666Q2096.350792783527 491.7852355506245 2098.7656187741995 502.70811125261594L2098.7656187741995 502.70811125261594Q2100.5907779531954 492.59953733817656 2101.910508436469 483.3895033272429Q2103.230238919743 474.1794693163092 2103.230238919743 467.1034675762017L2103.230238919743 467.1034675762017Q2103.230238919743 457.80919544931436 2100.7873335570875 453.5692102796467L2100.7873335570875 453.5692102796467L2100.7873335570875 452.3617972843109Q2105.448509306523 447.1109547231993 2111.008224959465 444.5838112445895Q2116.5679406124063 442.0566677659796 2121.6222275696264 442.0566677659796L2121.6222275696264 442.0566677659796Q2128.30511810195 442.0566677659796 2132.938214479401 446.1843354477091Q2137.5993902288374 450.340082501423 2137.5993902288374 458.0057510532062L2137.5993902288374 458.0057510532062Q2137.5993902288374 462.2738155948584 2136.167342257625 470.5572303303018Q2134.7633736583975 478.8406450657452 2132.7416588755095 489.45464767590653Q2130.7199440926215 500.06865028606785 2128.585911821795 511.3003990798894Q2126.479958922954 522.5040685017264 2125.047910951742 532.724959904104Q2123.6439423525144 542.9177719344971 2123.6439423525144 550.4149642543729L2123.6439423525144 550.4149642543729Q2123.6439423525144 556.6766642069283 2124.963672835788 560.4112206808741Q2126.283403319062 564.1457771548197 2129.315975493394 564.1457771548197L2129.315975493394 564.1457771548197Q2131.5342458801733 564.1457771548197 2133.864833754891 562.6294910676538Q2136.167342257625 561.1132049804879 2136.981644045177 559.0914901976L2136.981644045177 559.0914901976L2138.413692016389 560.102347589044Q2138.413692016389 566.7852381213677 2134.145627474737 572.3449537743094Q2129.9056423050697 577.9046694272512 2123.447386748622 581.3303528093667Q2116.96105182019 584.7841155634668 2110.109685055959 584.7841155634668L2110.109685055959 584.7841155634668Q2102.6124927360834 584.7841155634668 2098.2601900784775 580.6283685097529Q2093.9359667928557 576.5007008280235 2092.11080761386 570.0143658995916Q2090.285648434864 563.5561103431442 2090.089092830972 556.6766642069283L2090.089092830972 556.6766642069283Q2083.8273928784165 571.2217788949273 2075.4316606550346 578.0169869151892Q2067.0359284316537 584.7841155634668 2058.7525136962104 584.7841155634668ZM2072.286770992765 559.0914901976L2072.286770992765 559.0914901976Q2077.5376135538763 559.0914901976 2084.0239484823087 549.6006624668208Q2090.482204038756 540.1098347360416 2095.339935392084 521.9144016900507L2095.339935392084 521.9144016900507L2096.5473483874193 515.6246223655107Q2093.318220609196 508.1555094176194 2089.58366413525 505.01061975534935Q2085.8491076613045 501.89380946506384 2082.395344907204 501.89380946506384L2082.395344907204 501.89380946506384Q2077.341057949985 501.89380946506384 2072.9045171764255 507.45352511800553Q2068.439897030881 513.0132407709473 2065.716197948379 521.6055285982206Q2062.9924988658777 530.1978164254941 2062.9924988658777 539.6886441562733L2062.9924988658777 539.6886441562733Q2062.9924988658777 548.7863606792687 2065.6319598324253 553.9529651244267Q2068.243341426989 559.0914901976 2072.286770992765 559.0914901976ZM2191.5679431831495 585.3737823751425L2191.5679431831495 585.3737823751425Q2176.4050823114903 585.3737823751425 2166.4930640009434 579.3086380264789Q2156.6091250623804 573.2434936778151 2151.835631825006 563.247237251314Q2147.090217959617 553.2509808248128 2147.090217959617 541.9069145430531L2147.090217959617 541.9069145430531Q2147.090217959617 531.208673816938 2151.0494094094383 520.4823537188386Q2154.980521487276 509.78411299272346 2162.561951923106 500.9671901895736Q2170.143382358935 492.1783467584083 2181.066258060927 486.81518670935844Q2191.989133762918 481.48010603229324 2206.141137243133 481.48010603229324L2206.141137243133 481.48010603229324Q2221.303998114792 481.48010603229324 2231.1036989374015 487.6294884969105Q2240.903399760011 493.80695033351236 2245.6488136254 503.91552424795174Q2250.3942274907904 514.024098162391 2250.3942274907904 525.5366406760581L2250.3942274907904 525.5366406760581Q2250.3942274907904 536.0664051702659 2246.5754329008905 546.6804077804272Q2242.7285589390067 557.2944103905886 2235.1471285031776 566.0832538217539Q2227.5656980673475 574.8720972529194 2216.6428223653566 580.1229398140309Q2205.7199466633647 585.3737823751425 2191.5679431831495 585.3737823751425ZM2197.043420720138 568.1892067205955L2197.043420720138 568.1892067205955Q2202.4908188851414 568.1892067205955 2206.141137243133 562.5452529517001Q2209.7633762291407 556.8732198108203 2211.5885354081365 548.0843763796549Q2213.4136945871323 539.2955329484896 2213.4136945871323 530.1978164254941L2213.4136945871323 530.1978164254941Q2213.4136945871323 522.1109572939426 2211.8974084999663 514.9226380658968Q2210.3811224128003 507.7623982098356 2207.348550238469 503.2135399483379Q2204.315978064137 498.6646816868402 2199.4582467108094 498.6646816868402L2199.4582467108094 498.6646816868402Q2194.207404149698 498.6646816868402 2190.472847675752 504.3086354557355Q2186.7102118298217 509.9806685966154 2184.9131320228107 518.6571945398425Q2183.087972843814 527.3617998550542 2183.087972843814 536.6560719819415L2183.087972843814 536.6560719819415Q2183.087972843814 544.742931113493 2184.604258930981 551.9312503415388Q2186.120545018146 559.0914901976 2189.153117192478 563.6403484590978Q2192.18568936681 568.1892067205955 2197.043420720138 568.1892067205955Z " fill="#c1222" transform="matrix(0.38882074628400703,0,0,0.38882074628400715,0,101.5560851531568)"/></g></svg>